<svg width="138" height="30" viewBox="0 0 138 30" fill="none" xmlns="http://www.w3.org/2000/svg">
<path d="M73.96 15C73.96 13.6267 74.26 12.4 74.86 11.32C75.46 10.2267 76.28 9.38 77.32 8.78C78.36 8.16667 79.52 7.86 80.8 7.86C82.36 7.86 83.6933 8.23333 84.8 8.98C85.92 9.71333 86.7333 10.7533 87.24 12.1H85.6C85.2 11.1533 84.5867 10.4133 83.76 9.88C82.9467 9.34667 81.96 9.08 80.8 9.08C79.7733 9.08 78.8467 9.32 78.02 9.8C77.2067 10.28 76.5667 10.9733 76.1 11.88C75.6333 12.7733 75.4 13.8133 75.4 15C75.4 16.1867 75.6333 17.2267 76.1 18.12C76.5667 19.0133 77.2067 19.7 78.02 20.18C78.8467 20.66 79.7733 20.9 80.8 20.9C81.96 20.9 82.9467 20.64 83.76 20.12C84.5867 19.5867 85.2 18.8533 85.6 17.92H87.24C86.7333 19.2533 85.92 20.2867 84.8 21.02C83.68 21.7533 82.3467 22.12 80.8 22.12C79.52 22.12 78.36 21.82 77.32 21.22C76.28 20.6067 75.46 19.76 74.86 18.68C74.26 17.6 73.96 16.3733 73.96 15ZM94.8097 22.16C93.783 22.16 92.8564 21.9333 92.0297 21.48C91.2164 21.0133 90.5697 20.36 90.0897 19.52C89.623 18.6667 89.3897 17.6733 89.3897 16.54C89.3897 15.4067 89.6297 14.42 90.1097 13.58C90.5897 12.7267 91.243 12.0733 92.0697 11.62C92.8964 11.1533 93.823 10.92 94.8497 10.92C95.8764 10.92 96.803 11.1533 97.6297 11.62C98.4697 12.0733 99.123 12.7267 99.5897 13.58C100.07 14.42 100.31 15.4067 100.31 16.54C100.31 17.66 100.07 18.6467 99.5897 19.5C99.1097 20.3533 98.4497 21.0133 97.6097 21.48C96.7697 21.9333 95.8364 22.16 94.8097 22.16ZM94.8097 20.94C95.5297 20.94 96.1964 20.78 96.8097 20.46C97.423 20.1267 97.9164 19.6333 98.2897 18.98C98.6764 18.3133 98.8697 17.5 98.8697 16.54C98.8697 15.58 98.683 14.7733 98.3097 14.12C97.9364 13.4533 97.443 12.96 96.8297 12.64C96.2164 12.3067 95.5497 12.14 94.8297 12.14C94.1097 12.14 93.443 12.3067 92.8297 12.64C92.2164 12.96 91.723 13.4533 91.3497 14.12C90.9897 14.7733 90.8097 15.58 90.8097 16.54C90.8097 17.5 90.9897 18.3133 91.3497 18.98C91.723 19.6333 92.2097 20.1267 92.8097 20.46C93.423 20.78 94.0897 20.94 94.8097 20.94ZM102.222 16.52C102.222 15.4 102.448 14.42 102.902 13.58C103.355 12.7267 103.975 12.0733 104.762 11.62C105.562 11.1533 106.462 10.92 107.462 10.92C108.422 10.92 109.288 11.1533 110.062 11.62C110.835 12.0867 111.402 12.6933 111.762 13.44V7.2H113.162V22H111.762V19.56C111.428 20.32 110.882 20.9467 110.122 21.44C109.362 21.92 108.468 22.16 107.442 22.16C106.442 22.16 105.542 21.9267 104.742 21.46C103.955 20.9933 103.335 20.3333 102.882 19.48C102.442 18.6267 102.222 17.64 102.222 16.52ZM111.762 16.54C111.762 15.66 111.582 14.8867 111.222 14.22C110.862 13.5533 110.368 13.04 109.742 12.68C109.128 12.32 108.448 12.14 107.702 12.14C106.928 12.14 106.235 12.3133 105.622 12.66C105.008 13.0067 104.522 13.5133 104.162 14.18C103.815 14.8333 103.642 15.6133 103.642 16.52C103.642 17.4133 103.815 18.2 104.162 18.88C104.522 19.5467 105.008 20.06 105.622 20.42C106.235 20.7667 106.928 20.94 107.702 20.94C108.448 20.94 109.128 20.76 109.742 20.4C110.368 20.04 110.862 19.5267 111.222 18.86C111.582 18.1933 111.762 17.42 111.762 16.54ZM126.238 15.98C126.238 16.46 126.224 16.8267 126.198 17.08H117.138C117.178 17.9067 117.378 18.6133 117.738 19.2C118.098 19.7867 118.571 20.2333 119.158 20.54C119.744 20.8333 120.384 20.98 121.078 20.98C121.984 20.98 122.744 20.76 123.358 20.32C123.984 19.88 124.398 19.2867 124.598 18.54H126.078C125.811 19.6067 125.238 20.48 124.358 21.16C123.491 21.8267 122.398 22.16 121.078 22.16C120.051 22.16 119.131 21.9333 118.318 21.48C117.504 21.0133 116.864 20.36 116.398 19.52C115.944 18.6667 115.718 17.6733 115.718 16.54C115.718 15.4067 115.944 14.4133 116.398 13.56C116.851 12.7067 117.484 12.0533 118.298 11.6C119.111 11.1467 120.038 10.92 121.078 10.92C122.118 10.92 123.024 11.1467 123.798 11.6C124.584 12.0533 125.184 12.6667 125.598 13.44C126.024 14.2 126.238 15.0467 126.238 15.98ZM124.818 15.94C124.831 15.1267 124.664 14.4333 124.318 13.86C123.984 13.2867 123.524 12.8533 122.938 12.56C122.351 12.2667 121.711 12.12 121.018 12.12C119.978 12.12 119.091 12.4533 118.358 13.12C117.624 13.7867 117.218 14.7267 117.138 15.94H124.818ZM132.559 22.16C131.306 22.16 130.279 21.8733 129.479 21.3C128.693 20.7133 128.253 19.92 128.159 18.92H129.599C129.666 19.5333 129.953 20.0333 130.459 20.42C130.979 20.7933 131.673 20.98 132.539 20.98C133.299 20.98 133.893 20.8 134.319 20.44C134.759 20.08 134.979 19.6333 134.979 19.1C134.979 18.7267 134.859 18.42 134.619 18.18C134.379 17.94 134.073 17.7533 133.699 17.62C133.339 17.4733 132.846 17.32 132.219 17.16C131.406 16.9467 130.746 16.7333 130.239 16.52C129.733 16.3067 129.299 15.9933 128.939 15.58C128.593 15.1533 128.419 14.5867 128.419 13.88C128.419 13.3467 128.579 12.8533 128.899 12.4C129.219 11.9467 129.673 11.5867 130.259 11.32C130.846 11.0533 131.513 10.92 132.259 10.92C133.433 10.92 134.379 11.22 135.099 11.82C135.819 12.4067 136.206 13.22 136.259 14.26H134.859C134.819 13.62 134.566 13.1067 134.099 12.72C133.646 12.32 133.019 12.12 132.219 12.12C131.513 12.12 130.939 12.2867 130.499 12.62C130.059 12.9533 129.839 13.3667 129.839 13.86C129.839 14.2867 129.966 14.64 130.219 14.92C130.486 15.1867 130.813 15.4 131.199 15.56C131.586 15.7067 132.106 15.8733 132.759 16.06C133.546 16.2733 134.173 16.48 134.639 16.68C135.106 16.88 135.506 17.1733 135.839 17.56C136.173 17.9467 136.346 18.46 136.359 19.1C136.359 19.6867 136.199 20.2133 135.879 20.68C135.559 21.1333 135.113 21.4933 134.539 21.76C133.966 22.0267 133.306 22.16 132.559 22.16Z" fill="#8CBCB9"/>
<path d="M6.93182 7.45455H10.8239V17.4261C10.8191 18.3731 10.58 19.2064 10.1065 19.9261C9.63778 20.6411 8.98911 21.1998 8.16051 21.6023C7.33665 22 6.38731 22.1989 5.3125 22.1989C4.37973 22.1989 3.52746 22.0379 2.75568 21.7159C1.9839 21.3892 1.36837 20.8778 0.909091 20.1818C0.449811 19.4811 0.222538 18.572 0.227273 17.4545H4.17614C4.19034 17.8191 4.25189 18.1269 4.3608 18.3778C4.47443 18.6288 4.63068 18.8182 4.82955 18.946C5.03314 19.0691 5.27936 19.1307 5.56818 19.1307C5.86174 19.1307 6.10795 19.0668 6.30682 18.9389C6.51042 18.8111 6.6643 18.6217 6.76847 18.3707C6.87263 18.1151 6.92708 17.8002 6.93182 17.4261V7.45455ZM17.9794 22.1989C16.8146 22.1989 15.8108 21.9763 14.968 21.5312C14.13 21.0814 13.4837 20.4375 13.0291 19.5994C12.5793 18.7566 12.3544 17.7481 12.3544 16.5739C12.3544 15.447 12.5817 14.4621 13.0362 13.6193C13.4908 12.7765 14.1323 12.1207 14.9609 11.652C15.7895 11.1832 16.7673 10.9489 17.8942 10.9489C18.718 10.9489 19.4638 11.0767 20.1314 11.3324C20.799 11.5881 21.3696 11.9598 21.843 12.4474C22.3165 12.9304 22.6811 13.5175 22.9368 14.2088C23.1925 14.9001 23.3203 15.679 23.3203 16.5455V17.4545H13.576V15.2955H19.7124C19.7076 14.983 19.6271 14.7083 19.4709 14.4716C19.3194 14.2301 19.1134 14.0431 18.853 13.9105C18.5973 13.7732 18.3061 13.7045 17.9794 13.7045C17.6622 13.7045 17.371 13.7732 17.1058 13.9105C16.8407 14.0431 16.6276 14.2277 16.4666 14.4645C16.3104 14.7012 16.2275 14.9782 16.218 15.2955V17.625C16.218 17.9754 16.2914 18.2879 16.4382 18.5625C16.585 18.8371 16.7957 19.0526 17.0703 19.2088C17.3449 19.3651 17.6764 19.4432 18.0646 19.4432C18.3345 19.4432 18.5807 19.4053 18.8033 19.3295C19.0305 19.2538 19.2247 19.1449 19.3857 19.0028C19.5466 18.8561 19.665 18.6809 19.7408 18.4773H23.3203C23.1972 19.2348 22.906 19.893 22.4467 20.4517C21.9875 21.0057 21.379 21.4366 20.6214 21.7443C19.8686 22.0473 18.9879 22.1989 17.9794 22.1989ZM34.8917 14.642H31.2837C31.2648 14.4195 31.1867 14.2277 31.0494 14.0668C30.9121 13.9058 30.7345 13.7827 30.5167 13.6974C30.3036 13.6075 30.0669 13.5625 29.8065 13.5625C29.4703 13.5625 29.1815 13.6241 28.94 13.7472C28.6985 13.8703 28.5801 14.0455 28.5849 14.2727C28.5801 14.4337 28.6488 14.5829 28.7908 14.7202C28.9376 14.8575 29.2193 14.964 29.636 15.0398L31.8519 15.4375C32.9693 15.6411 33.8003 15.9844 34.3448 16.4673C34.8941 16.9455 35.171 17.5871 35.1758 18.392C35.171 19.1686 34.939 19.8433 34.4798 20.4162C34.0252 20.9844 33.4026 21.4247 32.6119 21.7372C31.8259 22.045 30.9286 22.1989 29.9201 22.1989C28.2534 22.1989 26.949 21.858 26.0067 21.1761C25.0692 20.4943 24.546 19.5947 24.4371 18.4773H28.3292C28.3813 18.8229 28.5517 19.0904 28.8406 19.2798C29.1341 19.4645 29.5034 19.5568 29.9485 19.5568C30.3084 19.5568 30.6043 19.4953 30.8363 19.3722C31.073 19.2491 31.1938 19.0739 31.1985 18.8466C31.1938 18.6383 31.0896 18.4725 30.886 18.3494C30.6871 18.2263 30.3746 18.1269 29.9485 18.0511L28.0167 17.7102C26.904 17.5161 26.0707 17.1468 25.5167 16.6023C24.9627 16.0578 24.6881 15.357 24.6928 14.5C24.6881 13.7424 24.887 13.1009 25.2894 12.5753C25.6966 12.045 26.2766 11.6425 27.0295 11.3679C27.7871 11.0885 28.6843 10.9489 29.7212 10.9489C31.2979 10.9489 32.5408 11.2756 33.4499 11.929C34.3638 12.5824 34.8443 13.4867 34.8917 14.642ZM46.6495 14.642H43.0415C43.0226 14.4195 42.9445 14.2277 42.8072 14.0668C42.6699 13.9058 42.4923 13.7827 42.2745 13.6974C42.0614 13.6075 41.8247 13.5625 41.5643 13.5625C41.2281 13.5625 40.9393 13.6241 40.6978 13.7472C40.4563 13.8703 40.3379 14.0455 40.3427 14.2727C40.3379 14.4337 40.4066 14.5829 40.5487 14.7202C40.6954 14.8575 40.9772 14.964 41.3938 15.0398L43.6097 15.4375C44.7272 15.6411 45.5581 15.9844 46.1026 16.4673C46.6519 16.9455 46.9289 17.5871 46.9336 18.392C46.9289 19.1686 46.6969 19.8433 46.2376 20.4162C45.783 20.9844 45.1604 21.4247 44.3697 21.7372C43.5837 22.045 42.6864 22.1989 41.6779 22.1989C40.0112 22.1989 38.7068 21.858 37.7646 21.1761C36.8271 20.4943 36.3039 19.5947 36.195 18.4773H40.087C40.1391 18.8229 40.3095 19.0904 40.5984 19.2798C40.8919 19.4645 41.2612 19.5568 41.7063 19.5568C42.0662 19.5568 42.3621 19.4953 42.5941 19.3722C42.8308 19.2491 42.9516 19.0739 42.9563 18.8466C42.9516 18.6383 42.8474 18.4725 42.6438 18.3494C42.445 18.2263 42.1325 18.1269 41.7063 18.0511L39.7745 17.7102C38.6618 17.5161 37.8285 17.1468 37.2745 16.6023C36.7205 16.0578 36.4459 15.357 36.4506 14.5C36.4459 13.7424 36.6448 13.1009 37.0472 12.5753C37.4544 12.045 38.0344 11.6425 38.7873 11.3679C39.5449 11.0885 40.4421 10.9489 41.479 10.9489C43.0558 10.9489 44.2987 11.2756 45.2077 11.929C46.1216 12.5824 46.6022 13.4867 46.6495 14.642ZM53.663 22.1989C52.4982 22.1989 51.4944 21.9763 50.6516 21.5312C49.8136 21.0814 49.1673 20.4375 48.7127 19.5994C48.2629 18.7566 48.038 17.7481 48.038 16.5739C48.038 15.447 48.2653 14.4621 48.7198 13.6193C49.1744 12.7765 49.8159 12.1207 50.6445 11.652C51.4731 11.1832 52.4509 10.9489 53.5778 10.9489C54.4016 10.9489 55.1474 11.0767 55.815 11.3324C56.4826 11.5881 57.0531 11.9598 57.5266 12.4474C58.0001 12.9304 58.3647 13.5175 58.6204 14.2088C58.8761 14.9001 59.0039 15.679 59.0039 16.5455V17.4545H49.2596V15.2955H55.396C55.3912 14.983 55.3107 14.7083 55.1545 14.4716C55.003 14.2301 54.797 14.0431 54.5366 13.9105C54.2809 13.7732 53.9897 13.7045 53.663 13.7045C53.3458 13.7045 53.0546 13.7732 52.7894 13.9105C52.5243 14.0431 52.3112 14.2277 52.1502 14.4645C51.994 14.7012 51.9111 14.9782 51.9016 15.2955V17.625C51.9016 17.9754 51.975 18.2879 52.1218 18.5625C52.2686 18.8371 52.4793 19.0526 52.7539 19.2088C53.0285 19.3651 53.36 19.4432 53.7482 19.4432C54.0181 19.4432 54.2643 19.4053 54.4869 19.3295C54.7141 19.2538 54.9083 19.1449 55.0692 19.0028C55.2302 18.8561 55.3486 18.6809 55.4244 18.4773H59.0039C58.8808 19.2348 58.5896 19.893 58.1303 20.4517C57.671 21.0057 57.0626 21.4366 56.305 21.7443C55.5522 22.0473 54.6715 22.1989 53.663 22.1989Z" fill="#EDEDED"/>
<g filter="url(#filter0_d_12_8)">
<circle cx="66.5" cy="16.5" r="4.5" fill="#EDB183"/>
</g>
<defs>
<filter id="filter0_d_12_8" x="58" y="12" width="17" height="17" filterUnits="userSpaceOnUse" color-interpolation-filters="sRGB">
<feFlood flood-opacity="0" result="BackgroundImageFix"/>
<feColorMatrix in="SourceAlpha" type="matrix" values="0 0 0 0 0 0 0 0 0 0 0 0 0 0 0 0 0 0 127 0" result="hardAlpha"/>
<feOffset dy="4"/>
<feGaussianBlur stdDeviation="2"/>
<feComposite in2="hardAlpha" operator="out"/>
<feColorMatrix type="matrix" values="0 0 0 0 0 0 0 0 0 0 0 0 0 0 0 0 0 0 0.25 0"/>
<feBlend mode="normal" in2="BackgroundImageFix" result="effect1_dropShadow_12_8"/>
<feBlend mode="normal" in="SourceGraphic" in2="effect1_dropShadow_12_8" result="shape"/>
</filter>
</defs>
</svg>
