<svg width="133" height="16" viewBox="0 0 133 16" fill="none" xmlns="http://www.w3.org/2000/svg">
<path d="M6.93182 0.454554H10.8239V10.4261C10.8191 11.3731 10.58 12.2064 10.1065 12.9261C9.63779 13.6411 8.98911 14.1998 8.16051 14.6023C7.33665 15 6.38731 15.1989 5.3125 15.1989C4.37974 15.1989 3.52747 15.0379 2.75569 14.7159C1.9839 14.3892 1.36837 13.8779 0.909094 13.1818C0.449814 12.4811 0.222541 11.572 0.227276 10.4546H4.17614C4.19034 10.8191 4.2519 11.1269 4.3608 11.3779C4.47444 11.6288 4.63069 11.8182 4.82955 11.946C5.03315 12.0691 5.27936 12.1307 5.56818 12.1307C5.86175 12.1307 6.10796 12.0668 6.30682 11.9389C6.51042 11.8111 6.6643 11.6217 6.76847 11.3707C6.87264 11.1151 6.92709 10.8002 6.93182 10.4261V0.454554Z" fill="#EDEDED"/>
<path d="M17.9794 15.1989C16.8146 15.1989 15.8108 14.9763 14.968 14.5313C14.13 14.0814 13.4837 13.4375 13.0291 12.5994C12.5793 11.7566 12.3544 10.7481 12.3544 9.57387C12.3544 8.44698 12.5817 7.46213 13.0362 6.61933C13.4908 5.77652 14.1323 5.12075 14.9609 4.652C15.7895 4.18325 16.7673 3.94887 17.8942 3.94887C18.718 3.94887 19.4638 4.07671 20.1314 4.3324C20.799 4.58808 21.3696 4.95976 21.843 5.44745C22.3165 5.93041 22.6811 6.51753 22.9368 7.20882C23.1925 7.9001 23.3203 8.67899 23.3203 9.54546V10.4546H13.576V8.29546H19.7124C19.7076 7.98296 19.6271 7.70834 19.4709 7.4716C19.3194 7.23012 19.1134 7.0431 18.853 6.91052C18.5973 6.77321 18.3061 6.70455 17.9794 6.70455C17.6622 6.70455 17.371 6.77321 17.1058 6.91052C16.8407 7.0431 16.6276 7.22776 16.4666 7.4645C16.3104 7.70124 16.2275 7.97823 16.218 8.29546V10.625C16.218 10.9754 16.2914 11.2879 16.4382 11.5625C16.585 11.8371 16.7957 12.0526 17.0703 12.2088C17.3449 12.3651 17.6764 12.4432 18.0646 12.4432C18.3345 12.4432 18.5807 12.4053 18.8033 12.3296C19.0305 12.2538 19.2247 12.1449 19.3857 12.0029C19.5466 11.8561 19.665 11.6809 19.7408 11.4773H23.3203C23.1972 12.2349 22.906 12.893 22.4467 13.4517C21.9875 14.0057 21.379 14.4366 20.6215 14.7443C19.8686 15.0474 18.9879 15.1989 17.9794 15.1989Z" fill="#EDEDED"/>
<path d="M34.8917 7.64205H31.2837C31.2648 7.41952 31.1867 7.22776 31.0494 7.06677C30.9121 6.90579 30.7345 6.78268 30.5167 6.69745C30.3036 6.60749 30.0669 6.56251 29.8065 6.56251C29.4703 6.56251 29.1815 6.62406 28.94 6.74717C28.6985 6.87027 28.5801 7.04546 28.5849 7.27274C28.5801 7.43372 28.6488 7.58287 28.7908 7.72018C28.9376 7.85749 29.2193 7.96402 29.636 8.03978L31.8519 8.43751C32.9693 8.64111 33.8003 8.98438 34.3448 9.46734C34.8941 9.94556 35.1711 10.5871 35.1758 11.3921C35.1711 12.1686 34.939 12.8433 34.4798 13.4162C34.0252 13.9844 33.4026 14.4247 32.6119 14.7372C31.8259 15.045 30.9286 15.1989 29.9201 15.1989C28.2534 15.1989 26.949 14.858 26.0068 14.1761C25.0693 13.4943 24.546 12.5947 24.4371 11.4773H28.3292C28.3813 11.8229 28.5517 12.0904 28.8406 12.2798C29.1341 12.4645 29.5034 12.5568 29.9485 12.5568C30.3084 12.5568 30.6043 12.4953 30.8363 12.3722C31.073 12.2491 31.1938 12.0739 31.1985 11.8466C31.1938 11.6383 31.0896 11.4725 30.886 11.3494C30.6871 11.2263 30.3746 11.1269 29.9485 11.0511L28.0167 10.7102C26.904 10.5161 26.0707 10.1468 25.5167 9.60228C24.9627 9.05777 24.6881 8.35702 24.6928 7.50001C24.6881 6.74243 24.887 6.10086 25.2894 5.57529C25.6966 5.04499 26.2766 4.64253 27.0295 4.36791C27.7871 4.08855 28.6843 3.94887 29.7212 3.94887C31.2979 3.94887 32.5408 4.27558 33.4499 4.92899C34.3638 5.5824 34.8443 6.48675 34.8917 7.64205Z" fill="#EDEDED"/>
<path d="M46.6495 7.64205H43.0416C43.0226 7.41952 42.9445 7.22776 42.8072 7.06677C42.6699 6.90579 42.4923 6.78268 42.2745 6.69745C42.0614 6.60749 41.8247 6.56251 41.5643 6.56251C41.2281 6.56251 40.9393 6.62406 40.6978 6.74717C40.4563 6.87027 40.338 7.04546 40.3427 7.27274C40.338 7.43372 40.4066 7.58287 40.5487 7.72018C40.6954 7.85749 40.9772 7.96402 41.3938 8.03978L43.6097 8.43751C44.7272 8.64111 45.5581 8.98438 46.1026 9.46734C46.6519 9.94556 46.9289 10.5871 46.9336 11.3921C46.9289 12.1686 46.6969 12.8433 46.2376 13.4162C45.783 13.9844 45.1604 14.4247 44.3697 14.7372C43.5837 15.045 42.6864 15.1989 41.6779 15.1989C40.0112 15.1989 38.7068 14.858 37.7646 14.1761C36.8271 13.4943 36.3039 12.5947 36.195 11.4773H40.087C40.1391 11.8229 40.3095 12.0904 40.5984 12.2798C40.8919 12.4645 41.2612 12.5568 41.7063 12.5568C42.0662 12.5568 42.3621 12.4953 42.5941 12.3722C42.8309 12.2491 42.9516 12.0739 42.9563 11.8466C42.9516 11.6383 42.8474 11.4725 42.6438 11.3494C42.445 11.2263 42.1325 11.1269 41.7063 11.0511L39.7745 10.7102C38.6618 10.5161 37.8285 10.1468 37.2745 9.60228C36.7205 9.05777 36.4459 8.35702 36.4506 7.50001C36.4459 6.74243 36.6448 6.10086 37.0472 5.57529C37.4544 5.04499 38.0344 4.64253 38.7873 4.36791C39.5449 4.08855 40.4421 3.94887 41.4791 3.94887C43.0558 3.94887 44.2987 4.27558 45.2077 4.92899C46.1216 5.5824 46.6022 6.48675 46.6495 7.64205Z" fill="#EDEDED"/>
<path d="M53.663 15.1989C52.4982 15.1989 51.4944 14.9763 50.6516 14.5313C49.8136 14.0814 49.1673 13.4375 48.7127 12.5994C48.2629 11.7566 48.038 10.7481 48.038 9.57387C48.038 8.44698 48.2653 7.46213 48.7198 6.61933C49.1744 5.77652 49.8159 5.12075 50.6445 4.652C51.4731 4.18325 52.4509 3.94887 53.5778 3.94887C54.4016 3.94887 55.1474 4.07671 55.815 4.3324C56.4826 4.58808 57.0532 4.95976 57.5266 5.44745C58.0001 5.93041 58.3647 6.51753 58.6204 7.20882C58.8761 7.9001 59.0039 8.67899 59.0039 9.54546V10.4546H49.2596V8.29546H55.396C55.3912 7.98296 55.3107 7.70834 55.1545 7.4716C55.003 7.23012 54.797 7.0431 54.5366 6.91052C54.2809 6.77321 53.9897 6.70455 53.663 6.70455C53.3458 6.70455 53.0546 6.77321 52.7894 6.91052C52.5243 7.0431 52.3112 7.22776 52.1502 7.4645C51.994 7.70124 51.9111 7.97823 51.9016 8.29546V10.625C51.9016 10.9754 51.975 11.2879 52.1218 11.5625C52.2686 11.8371 52.4793 12.0526 52.7539 12.2088C53.0285 12.3651 53.36 12.4432 53.7482 12.4432C54.0181 12.4432 54.2643 12.4053 54.4869 12.3296C54.7141 12.2538 54.9083 12.1449 55.0693 12.0029C55.2302 11.8561 55.3486 11.6809 55.4244 11.4773H59.0039C58.8808 12.2349 58.5896 12.893 58.1303 13.4517C57.671 14.0057 57.0626 14.4366 56.305 14.7443C55.5522 15.0474 54.6715 15.1989 53.663 15.1989Z" fill="#EDEDED"/>
<path d="M75.9318 0.454554H77.4659L82.7429 13.125H82.8707L88.1477 0.454554H89.6818V15H88.4318V3.25995H88.3182L83.4105 15H82.2031L77.2955 3.25995H77.1818V15H75.9318V0.454554Z" fill="#8CBCB9"/>
<path d="M96.3331 15.2486C95.675 15.2486 95.0736 15.1207 94.5291 14.8651C93.9846 14.6046 93.5514 14.2306 93.2294 13.7429C92.9074 13.2505 92.7465 12.6539 92.7465 11.9531C92.7465 11.4134 92.8483 10.9588 93.0518 10.5895C93.2554 10.2202 93.5443 9.91715 93.9183 9.68041C94.2924 9.44366 94.7351 9.25664 95.2465 9.11933C95.7578 8.98202 96.3213 8.87548 96.9368 8.79972C97.5476 8.72397 98.0637 8.65768 98.4851 8.60086C98.9112 8.54404 99.2356 8.45408 99.4581 8.33098C99.6806 8.20787 99.7919 8.00901 99.7919 7.73438V7.4787C99.7919 6.73533 99.5694 6.15058 99.1243 5.72444C98.6839 5.29357 98.0495 5.07813 97.2209 5.07813C96.4349 5.07813 95.7933 5.25096 95.2962 5.5966C94.8037 5.94224 94.4581 6.34944 94.2592 6.81819L93.059 6.38495C93.3052 5.78836 93.6461 5.31251 94.0817 4.9574C94.5173 4.59755 95.005 4.3395 95.5447 4.18325C96.0845 4.02226 96.6314 3.94177 97.1854 3.94177C97.602 3.94177 98.0353 3.99622 98.4851 4.10512C98.9396 4.21402 99.361 4.40342 99.7493 4.6733C100.138 4.93846 100.452 5.31014 100.694 5.78836C100.935 6.26185 101.056 6.86317 101.056 7.59234V15H99.7919V13.2742H99.7138C99.5623 13.5961 99.3374 13.9086 99.0391 14.2117C98.7408 14.5147 98.3667 14.7633 97.9169 14.9574C97.4671 15.1515 96.9392 15.2486 96.3331 15.2486ZM96.5036 14.0909C97.1759 14.0909 97.7583 13.9418 98.2507 13.6435C98.7431 13.3452 99.1219 12.9498 99.3871 12.4574C99.657 11.9602 99.7919 11.4134 99.7919 10.8168V9.24007C99.6972 9.33003 99.5386 9.41052 99.3161 9.48154C99.0983 9.55257 98.8449 9.61649 98.5561 9.6733C98.272 9.72539 97.9879 9.77037 97.7038 9.80825C97.4198 9.84613 97.1641 9.87927 96.9368 9.90768C96.3213 9.98344 95.7957 10.1018 95.3601 10.2628C94.9245 10.4238 94.5907 10.6463 94.3587 10.9304C94.1267 11.2098 94.0107 11.5696 94.0107 12.01C94.0107 12.6728 94.2474 13.1866 94.7209 13.5511C95.1944 13.911 95.7886 14.0909 96.5036 14.0909Z" fill="#8CBCB9"/>
<path d="M104.419 15V4.09092H105.648V5.76705H105.74C105.958 5.21781 106.337 4.7751 106.876 4.43893C107.421 4.09802 108.036 3.92757 108.723 3.92757C108.827 3.92757 108.943 3.92993 109.071 3.93467C109.199 3.9394 109.305 3.94414 109.391 3.94887V5.23438C109.334 5.22491 109.234 5.21071 109.092 5.19177C108.95 5.17283 108.796 5.16336 108.631 5.16336C108.063 5.16336 107.556 5.2841 107.111 5.52558C106.67 5.76232 106.322 6.09139 106.067 6.51279C105.811 6.93419 105.683 7.41478 105.683 7.95455V15H104.419Z" fill="#8CBCB9"/>
<path d="M116.528 4.09092V5.19177H111.322V4.09092H116.528ZM112.949 1.47728H114.22V12.152C114.22 12.6065 114.298 12.964 114.455 13.2244C114.611 13.4801 114.814 13.6624 115.065 13.7713C115.316 13.8755 115.584 13.9276 115.868 13.9276C116.034 13.9276 116.176 13.9181 116.294 13.8992C116.412 13.8755 116.517 13.8518 116.607 13.8281L116.876 14.9716C116.753 15.0189 116.602 15.0616 116.422 15.0994C116.242 15.1421 116.019 15.1634 115.754 15.1634C115.29 15.1634 114.843 15.0616 114.412 14.858C113.986 14.6544 113.635 14.3513 113.361 13.9489C113.086 13.5464 112.949 13.0469 112.949 12.4503V1.47728Z" fill="#8CBCB9"/>
<path d="M119.414 15V4.09092H120.685V15H119.414ZM120.06 2.21592C119.8 2.21592 119.577 2.12832 119.392 1.95313C119.208 1.77321 119.115 1.55777 119.115 1.30683C119.115 1.05588 119.208 0.842812 119.392 0.667623C119.577 0.487698 119.8 0.397736 120.06 0.397736C120.32 0.397736 120.543 0.487698 120.728 0.667623C120.912 0.842812 121.005 1.05588 121.005 1.30683C121.005 1.55777 120.912 1.77321 120.728 1.95313C120.543 2.12832 120.32 2.21592 120.06 2.21592Z" fill="#8CBCB9"/>
<path d="M125.293 8.18183V15H124.028V4.09092H125.257V5.80257H125.371C125.626 5.24385 126.024 4.79641 126.564 4.46024C127.108 4.11933 127.781 3.94887 128.581 3.94887C129.315 3.94887 129.959 4.10276 130.513 4.41052C131.071 4.71355 131.505 5.16099 131.812 5.75285C132.125 6.34471 132.281 7.07151 132.281 7.93325V15H131.017V8.01137C131.017 7.11649 130.766 6.40863 130.264 5.88779C129.767 5.36696 129.099 5.10654 128.261 5.10654C127.688 5.10654 127.179 5.22965 126.734 5.47586C126.289 5.72207 125.937 6.07719 125.676 6.5412C125.42 7.00048 125.293 7.54736 125.293 8.18183Z" fill="#8CBCB9"/>
<path d="M71 9.00001C71 11.2091 69.2091 13 67 13C64.7909 13 63 11.2091 63 9.00001C63 6.79087 64.7909 5.00001 67 5.00001C69.2091 5.00001 71 6.79087 71 9.00001Z" fill="#EDB183"/>
</svg>
