<?xml version="1.0" standalone="no"?>
<!DOCTYPE svg PUBLIC "-//W3C//DTD SVG 20010904//EN"
 "http://www.w3.org/TR/2001/REC-SVG-20010904/DTD/svg10.dtd">
<svg version="1.0" xmlns="http://www.w3.org/2000/svg"
 width="1500.000000pt" height="1500.000000pt" viewBox="0 0 1500.000000 1500.000000"
 preserveAspectRatio="xMidYMid meet">
<metadata>
Created by potrace 1.14, written by Peter Selinger 2001-2017
</metadata>
<g transform="translate(0.000000,1500.000000) scale(0.100000,-0.100000)"
fill="#000000" stroke="none">
<path d="M0 7500 l0 -7500 7500 0 7500 0 0 7500 0 7500 -7500 0 -7500 0 0
-7500z m11398 3975 c427 -45 903 -174 1207 -327 67 -34 263 -157 323 -203 4
-4 -577 -1165 -583 -1165 -2 0 -39 23 -80 51 -98 66 -204 114 -390 178 -173
60 -351 105 -480 120 -115 14 -407 14 -533 0 -347 -37 -690 -157 -946 -330
-58 -39 -106 -74 -106 -76 0 -3 26 -34 59 -68 299 -320 558 -757 711 -1200
122 -353 180 -707 180 -1100 0 -239 -11 -378 -46 -584 -13 -79 -23 -146 -21
-147 8 -8 151 -25 295 -35 292 -20 561 16 847 112 185 63 331 131 433 203 l78
54 292 -585 c274 -547 292 -586 275 -599 -145 -113 -450 -265 -709 -354 -198
-68 -568 -140 -879 -171 -156 -15 -562 -15 -690 0 -166 19 -304 42 -415 67
-58 13 -107 20 -111 16 -3 -4 -30 -38 -59 -77 -333 -431 -802 -803 -1288
-1020 -312 -139 -589 -220 -952 -277 -128 -20 -182 -22 -465 -22 -255 -1 -344
3 -440 17 -66 10 -127 20 -135 22 -12 4 -26 -18 -53 -83 -80 -188 -219 -394
-372 -547 -438 -440 -1066 -649 -1821 -606 -425 25 -726 97 -1039 250 -638
313 -1018 851 -1129 1598 -16 105 -36 345 -36 431 l0 52 823 -2 822 -3 2 -70
c9 -262 78 -465 202 -598 121 -129 259 -182 471 -181 188 1 304 41 415 146 35
32 78 81 96 109 37 59 83 179 72 189 -286 230 -526 489 -716 772 -305 455
-485 933 -563 1498 -22 158 -26 654 -6 800 95 695 323 1239 743 1770 106 135
373 401 514 513 391 311 822 527 1294 648 664 170 1336 141 1994 -88 l128 -44
87 82 c104 97 330 269 474 359 140 87 433 234 597 298 333 131 678 206 1031
226 116 6 458 -5 598 -19z"/>
</g>
</svg>
